<?xml version="1.0" encoding="utf-8"?>
<!-- Generator: Adobe Illustrator 19.0.0, SVG Export Plug-In . SVG Version: 6.00 Build 0)  -->
<!DOCTYPE svg PUBLIC "-//W3C//DTD SVG 1.1//EN" "http://www.w3.org/Graphics/SVG/1.1/DTD/svg11.dtd">
<svg version="1.1" id="Layer_1" xmlns="http://www.w3.org/2000/svg" xmlns:xlink="http://www.w3.org/1999/xlink" x="0px" y="0px"
	 width="24.8px" height="39.8px" viewBox="-627 381.2 24.8 39.8" style="enable-background:new -627 381.2 24.8 39.8;"
	 xml:space="preserve">
<style type="text/css">
	.st0{fill:#C4412C;}
	.st1{fill:url(#SVGID_1_);}
	.st2{opacity:0.2;enable-background:new    ;}
	.st3{fill:#772611;}
</style>
<polygon class="st0" points="-611.7,389.2 -609.9,398 -602.2,391.4 "/>
<linearGradient id="SVGID_1_" gradientUnits="userSpaceOnUse" x1="-622.899" y1="398.6388" x2="-614.5351" y2="384.152">
	<stop  offset="0" style="stop-color:#C4412C"/>
	<stop  offset="0.2875" style="stop-color:#BE3F2D"/>
	<stop  offset="0.6724" style="stop-color:#AD3A30"/>
	<stop  offset="1" style="stop-color:#993333"/>
</linearGradient>
<path class="st1" d="M-624.4,383.5l12.9,2.4l1.4,8.3l-11.3,5.3C-621.4,399.5-623.9,387.6-624.4,383.5z"/>
<path class="st2" d="M-618.1,415.7c3.4,0,10.2,0.9,10.2,2s-6.8,2-10.2,2s-6.2-0.9-6.2-2S-621.5,415.7-618.1,415.7z"/>
<path class="st3" d="M-619.3,418.5c-0.4,0-0.8-0.3-0.9-0.8l-5.3-35.5c-0.1-0.5,0.3-1,0.8-1c0.5-0.1,1,0.3,1,0.8l5.3,35.5
	c0.1,0.5-0.3,1-0.8,1C-619.2,418.5-619.3,418.5-619.3,418.5z"/>
</svg>
